<svg width="60" height="38" viewBox="0 0 60 38" fill="none" xmlns="http://www.w3.org/2000/svg">
<mask id="path-1-outside-1_31_272" maskUnits="userSpaceOnUse" x="0" y="0.000610352" width="60" height="38" fill="black">
<rect fill="white" y="0.000610352" width="60" height="38"/>
<path d="M41.7816 16.8237C42.5843 17.7835 44.014 17.9088 44.9714 17.1032L52.2835 10.9509C53.7541 9.71352 56 10.759 56 12.6808V32.1284C56 33.3771 54.9878 34.3893 53.7391 34.3893H6.26087C5.01223 34.3893 4 33.3771 4 32.1284L4 12.6808C4 10.759 6.24588 9.71352 7.71646 10.9508L15.0286 17.1032C15.986 17.9088 17.4157 17.7835 18.2184 16.8237L28.2657 4.81054C29.1694 3.73 30.8306 3.73 31.7343 4.81053L41.7816 16.8237Z"/>
</mask>
<path d="M41.7816 16.8237C42.5843 17.7835 44.014 17.9088 44.9714 17.1032L52.2835 10.9509C53.7541 9.71352 56 10.759 56 12.6808V32.1284C56 33.3771 54.9878 34.3893 53.7391 34.3893H6.26087C5.01223 34.3893 4 33.3771 4 32.1284L4 12.6808C4 10.759 6.24588 9.71352 7.71646 10.9508L15.0286 17.1032C15.986 17.9088 17.4157 17.7835 18.2184 16.8237L28.2657 4.81054C29.1694 3.73 30.8306 3.73 31.7343 4.81053L41.7816 16.8237Z" fill="#FFC21A"/>
<path d="M28.2657 4.81054L25.6643 2.63484L28.2657 4.81054ZM31.7343 4.81053L34.3357 2.63484L31.7343 4.81053ZM52.2835 10.9509L54.4669 13.5458L52.2835 10.9509ZM41.7816 16.8237L44.383 14.648L41.7816 16.8237ZM44.9714 17.1032L47.1548 19.6982L54.4669 13.5458L52.2835 10.9509L50.1002 8.35589L42.788 14.5083L44.9714 17.1032ZM56 12.6808H52.6087V32.1284H56H59.3913V12.6808H56ZM53.7391 34.3893V30.998H6.26087V34.3893V37.7806H53.7391V34.3893ZM4 32.1284H7.3913L7.3913 12.6808H4H0.608696L0.608696 32.1284H4ZM7.71646 10.9508L5.53308 13.5458L12.8452 19.6982L15.0286 17.1032L17.212 14.5083L9.89983 8.35589L7.71646 10.9508ZM18.2184 16.8237L20.8198 18.9994L30.8671 6.98624L28.2657 4.81054L25.6643 2.63484L15.617 14.648L18.2184 16.8237ZM31.7343 4.81053L29.1329 6.98623L39.1802 18.9994L41.7816 16.8237L44.383 14.648L34.3357 2.63484L31.7343 4.81053ZM28.2657 4.81054L30.8671 6.98624C30.4153 7.5265 29.5847 7.52651 29.1329 6.98623L31.7343 4.81053L34.3357 2.63484C32.0764 -0.0665139 27.9236 -0.0665041 25.6643 2.63484L28.2657 4.81054ZM15.0286 17.1032L12.8452 19.6982C15.2388 21.7121 18.813 21.3989 20.8198 18.9994L18.2184 16.8237L15.617 14.648C16.0184 14.1681 16.7332 14.1055 17.212 14.5083L15.0286 17.1032ZM4 12.6808H7.3913C7.3913 13.6418 6.26836 14.1645 5.53308 13.5458L7.71646 10.9508L9.89983 8.35589C6.2234 5.26257 0.608696 7.87615 0.608696 12.6808H4ZM6.26087 34.3893V30.998C6.88519 30.998 7.3913 31.5041 7.3913 32.1284H4H0.608696C0.608696 35.25 3.13926 37.7806 6.26087 37.7806V34.3893ZM56 32.1284H52.6087C52.6087 31.5041 53.1148 30.998 53.7391 30.998V34.3893V37.7806C56.8607 37.7806 59.3913 35.25 59.3913 32.1284H56ZM52.2835 10.9509L54.4669 13.5458C53.7316 14.1645 52.6087 13.6418 52.6087 12.6808H56H59.3913C59.3913 7.87614 53.7766 5.26257 50.1002 8.35589L52.2835 10.9509ZM44.9714 17.1032L42.788 14.5083C43.2668 14.1055 43.9816 14.1681 44.383 14.648L41.7816 16.8237L39.1802 18.9994C41.187 21.3989 44.7612 21.7121 47.1548 19.6982L44.9714 17.1032Z" fill="#141414" mask="url(#path-1-outside-1_31_272)"/>
<mask id="mask0_31_272" style="mask-type:alpha" maskUnits="userSpaceOnUse" x="4" y="4" width="52" height="31">
<path d="M41.7816 16.8241C42.5843 17.7839 44.014 17.9092 44.9714 17.1036L52.2835 10.9512C53.7541 9.71389 56 10.7593 56 12.6812V32.1288C56 33.3774 54.9878 34.3896 53.7391 34.3896H6.26087C5.01223 34.3896 4 33.3774 4 32.1288L4 12.6812C4 10.7593 6.24588 9.71389 7.71646 10.9512L15.0286 17.1036C15.986 17.9092 17.4157 17.7839 18.2184 16.8241L28.2657 4.8109C29.1694 3.73036 30.8306 3.73036 31.7343 4.8109L41.7816 16.8241Z" fill="#FFD91A"/>
</mask>
<g mask="url(#mask0_31_272)">
<g style="mix-blend-mode:soft-light">
<rect x="45.5623" y="-29.9128" width="30.145" height="87.6947" transform="rotate(31.7023 45.5623 -29.9128)" fill="#FEF130"/>
</g>
<g style="mix-blend-mode:soft-light">
<rect x="62.0051" y="-23.0618" width="30.145" height="87.6947" transform="rotate(31.7023 62.0051 -23.0618)" fill="#FFFE5A"/>
</g>
</g>
</svg>
