<svg xmlns="http://www.w3.org/2000/svg" xmlns:xlink="http://www.w3.org/1999/xlink" width="85" height="83"><defs><path id="b" d="M185.58 516.039l23.696 4.332a13 13 0 0 1 10.662 12.788v10.32h-.01c-.404 14.823-12.546 26.714-27.466 26.714-7.778 0-14.802-3.233-19.8-8.427l-23.519-23.519a8.7 8.7 0 1 1 12.303-12.302l6.736 6.736v-43.035a8.7 8.7 0 1 1 17.398 0v26.393z"/><filter id="a" width="119.1%" height="115.7%" x="-9.5%" y="-5.6%" filterUnits="objectBoundingBox"><feOffset dy="2" in="SourceAlpha" result="shadowOffsetOuter1"/><feGaussianBlur in="shadowOffsetOuter1" result="shadowBlurOuter1" stdDeviation="2"/><feComposite in="shadowBlurOuter1" in2="SourceAlpha" operator="out" result="shadowBlurOuter1"/><feColorMatrix in="shadowBlurOuter1" values="0 0 0 0 0 0 0 0 0 0 0 0 0 0 0 0 0 0 0.5 0"/></filter></defs><g fill="none" fill-rule="evenodd" transform="rotate(-30 -797.622 558.742)"><use fill="#000" filter="url(#a)" xlink:href="#b"/><path fill="#FFF"  stroke="url(#c)" stroke-linejoin="square" stroke-width="3" d="M218.438 543.078v-9.92a11.5 11.5 0 0 0-9.432-11.312l-24.926-4.557v-27.643a7.2 7.2 0 1 0-14.398 0v46.656l-9.297-9.297a7.2 7.2 0 1 0-10.181 10.181l23.539 23.54a25.89 25.89 0 0 0 18.72 7.967c14.077 0 25.583-11.215 25.965-25.254l.01-.36z"/></g></svg>
